G04 #@! TF.FileFunction,Copper,L1,Top,Signal*
%FSLAX46Y46*%
G04 Gerber Fmt 4.6, Leading zero omitted, Abs format (unit mm)*
G04 Created by KiCad (PCBNEW 4.0.5) date Wednesday, March 29, 2017 'PMt' 11:44:16 PM*
%MOMM*%
%LPD*%
G01*
G04 APERTURE LIST*
%ADD10C,0.100000*%
%ADD11C,1.778000*%
%ADD12O,3.000000X1.778000*%
%ADD13C,0.500000*%
G04 APERTURE END LIST*
D10*
D11*
X121988580Y-112610900D03*
X121988580Y-110070900D03*
X121988580Y-107530900D03*
X121988580Y-104990900D03*
X121988580Y-102450900D03*
X121988580Y-99910900D03*
X121988580Y-97370900D03*
X121988580Y-94830900D03*
X121988580Y-92290900D03*
X121988580Y-89750900D03*
D12*
X170502580Y-93560900D03*
X163390580Y-108800900D03*
D11*
X175328580Y-112610900D03*
X175328580Y-110070900D03*
X175328580Y-107530900D03*
X175328580Y-104990900D03*
X175328580Y-102450900D03*
X175328580Y-99910900D03*
X175328580Y-97370900D03*
X175328580Y-94830900D03*
X175328580Y-92290900D03*
X175328580Y-89750900D03*
X124528580Y-112610900D03*
X127068580Y-112610900D03*
X129608580Y-112610900D03*
X132148580Y-112610900D03*
X134688580Y-112610900D03*
X137228580Y-112610900D03*
X139768580Y-112610900D03*
X142308580Y-112610900D03*
X144848580Y-112610900D03*
X147388580Y-112610900D03*
X149928580Y-112610900D03*
X152468580Y-112610900D03*
X155008580Y-112610900D03*
X157548580Y-112610900D03*
X160088580Y-112610900D03*
X162628580Y-112610900D03*
X165168580Y-112610900D03*
X167708580Y-112610900D03*
X170248580Y-112610900D03*
X172788580Y-112610900D03*
D12*
X158818580Y-93560900D03*
X158818580Y-108800900D03*
X125798580Y-93560900D03*
X125798580Y-108800900D03*
X163390580Y-93560900D03*
D11*
X124536100Y-89758600D03*
X127076100Y-89758600D03*
X129616100Y-89758600D03*
X132156100Y-89758600D03*
X134696100Y-89758600D03*
X137236100Y-89758600D03*
X139776100Y-89758600D03*
X142316100Y-89758600D03*
X144856100Y-89758600D03*
X147396100Y-89758600D03*
X149936100Y-89758600D03*
X152476100Y-89758600D03*
X155016100Y-89758600D03*
X157556100Y-89758600D03*
X160096100Y-89758600D03*
X162636100Y-89758600D03*
X165176100Y-89758600D03*
X167716100Y-89758600D03*
X170256100Y-89758600D03*
X172796100Y-89758600D03*
D12*
X170502580Y-108800900D03*
D13*
X170609836Y-93626774D02*
X170609836Y-91594774D01*
X163497836Y-93626774D02*
X163497836Y-91594774D01*
X175328580Y-92356774D02*
X173042580Y-92356774D01*
X172280580Y-91594774D02*
X173042580Y-92356774D01*
X172280580Y-91594774D02*
X170502580Y-91594774D01*
X170609836Y-91594774D02*
X163497836Y-91594774D01*
X163390580Y-110832900D02*
X170502580Y-110832900D01*
X170502580Y-110832900D02*
X172280580Y-110832900D01*
X170502580Y-108800900D02*
X170502580Y-110832900D01*
X163390580Y-108800900D02*
X163390580Y-110832900D01*
X172280580Y-110832900D02*
X173042580Y-110070900D01*
X173042580Y-110070900D02*
X175328580Y-110070900D01*
X175328580Y-89750900D02*
X175328580Y-92290900D01*
X175328580Y-112610900D02*
X175328580Y-111353665D01*
X175328580Y-111353665D02*
X175328580Y-110070900D01*
M02*
