M48
;DRILL file {KiCad 4.0.5} date Wednesday, March 29, 2017 'PMt' 11:44:21 PM
;FORMAT={-:-/ absolute / inch / decimal}
FMAT,2
INCH,TZ
T1C0.040
%
G90
G05
M72
T1
X4.8027Y-3.5335
X4.8027Y-3.6335
X4.8027Y-3.7335
X4.8027Y-3.8335
X4.8027Y-3.9335
X4.8027Y-4.0335
X4.8027Y-4.1335
X4.8027Y-4.2335
X4.8027Y-4.3335
X4.8027Y-4.4335
X4.9027Y-4.4335
X4.903Y-3.5338
X4.9527Y-3.6835
X4.9527Y-4.2835
X5.0027Y-4.4335
X5.003Y-3.5338
X5.1027Y-4.4335
X5.103Y-3.5338
X5.2027Y-4.4335
X5.203Y-3.5338
X5.3027Y-4.4335
X5.303Y-3.5338
X5.4027Y-4.4335
X5.403Y-3.5338
X5.5027Y-4.4335
X5.503Y-3.5338
X5.6027Y-4.4335
X5.603Y-3.5338
X5.7027Y-4.4335
X5.703Y-3.5338
X5.8027Y-4.4335
X5.803Y-3.5338
X5.9027Y-4.4335
X5.903Y-3.5338
X6.0027Y-4.4335
X6.003Y-3.5338
X6.1027Y-4.4335
X6.103Y-3.5338
X6.2027Y-4.4335
X6.203Y-3.5338
X6.2527Y-3.6835
X6.2527Y-4.2835
X6.3027Y-4.4335
X6.303Y-3.5338
X6.4027Y-4.4335
X6.403Y-3.5338
X6.4327Y-3.6835
X6.4327Y-4.2835
X6.5027Y-4.4335
X6.503Y-3.5338
X6.6027Y-4.4335
X6.603Y-3.5338
X6.7027Y-4.4335
X6.703Y-3.5338
X6.7127Y-3.6835
X6.7127Y-4.2835
X6.8027Y-4.4335
X6.803Y-3.5338
X6.9027Y-3.5335
X6.9027Y-3.6335
X6.9027Y-3.7335
X6.9027Y-3.8335
X6.9027Y-3.9335
X6.9027Y-4.0335
X6.9027Y-4.1335
X6.9027Y-4.2335
X6.9027Y-4.3335
X6.9027Y-4.4335
T0
M30
